<svg width="65" height="65" viewBox="0 0 65 65" fill="none" xmlns="http://www.w3.org/2000/svg">
<rect width="65" height="65" fill="#505050"/>
<g clip-path="url(#clip0_3_2)">
<rect width="1440" height="3896" transform="translate(-687 -969)" fill="#F8F1E8"/>
<g filter="url(#filter0_d_3_2)">
<rect x="-509" y="-214" width="1084" height="304" fill="white"/>
</g>
<path d="M18.5304 50.9303C26.7953 38.4433 43.9876 26.9264 58.8825 36.2531C60.7378 37.4146 63.4021 39.6664 63.8552 41.8978C66.2708 53.7841 37.8575 69.0382 24.0763 60.9031C23.0756 60.3116 17.9223 53.8078 17.3835 53.9405C15.6634 54.364 10.6164 56.2707 9.35128 57.5154C9.2312 57.6336 14.4373 55.8219 19.1047 55.8219" stroke="#956B1B" stroke-width="2" stroke-linecap="round" stroke-linejoin="round"/>
<path d="M30.2231 41.956C33.9455 47.6842 32.6683 57.9507 32.6683 62.0549" stroke="#956B1B" stroke-width="2" stroke-linecap="round" stroke-linejoin="round"/>
<path d="M40.0905 37.4054C43.2092 44.0134 42.6813 51.4444 41.1359 58.2625" stroke="#956B1B" stroke-width="2" stroke-linecap="round" stroke-linejoin="round"/>
<path d="M55.341 45.8353C55.3731 46.0335 55.2438 46.2244 55.1954 46.4193" stroke="#956B1B" stroke-width="2" stroke-linecap="round" stroke-linejoin="round"/>
<path d="M36.6456 29.5517C37.4137 23.9947 22.8193 -2.04649 16.0979 1.29489C10.4395 4.10746 26.8612 22.6874 28.9645 24.7785C30.7317 26.5355 35.8422 31.7747 34.7247 29.5517C33.0845 26.2886 25.8675 23.0414 22.8193 21.7241C-4.13814 10.0699 -7.20934 34.5268 19.7471 30.5069C23.8717 29.8917 27.9896 28.8859 32.0367 28.2152" stroke="#956B1B" stroke-width="2" stroke-linecap="round" stroke-linejoin="round"/>
</g>
<defs>
<filter id="filter0_d_3_2" x="-513" y="-214" width="1092" height="312" filterUnits="userSpaceOnUse" color-interpolation-filters="sRGB">
<feFlood flood-opacity="0" result="BackgroundImageFix"/>
<feColorMatrix in="SourceAlpha" type="matrix" values="0 0 0 0 0 0 0 0 0 0 0 0 0 0 0 0 0 0 127 0" result="hardAlpha"/>
<feOffset dy="4"/>
<feGaussianBlur stdDeviation="2"/>
<feComposite in2="hardAlpha" operator="out"/>
<feColorMatrix type="matrix" values="0 0 0 0 0 0 0 0 0 0 0 0 0 0 0 0 0 0 0.25 0"/>
<feBlend mode="normal" in2="BackgroundImageFix" result="effect1_dropShadow_3_2"/>
<feBlend mode="normal" in="SourceGraphic" in2="effect1_dropShadow_3_2" result="shape"/>
</filter>
<clipPath id="clip0_3_2">
<rect width="1440" height="3896" fill="white" transform="translate(-687 -969)"/>
</clipPath>
</defs>
</svg>
